<svg id="レイヤー_1" data-name="レイヤー 1" xmlns="http://www.w3.org/2000/svg" viewBox="0 0 80 40"><defs><style>.cls-1{fill:#63bbb1;}.cls-2{fill:#68bbb1;}.cls-3{fill:#e66535;}.cls-4{fill:#f3be6c;}</style></defs><title>icon_sukufun_1</title><path class="cls-1" d="M1.18,20H4.23V34.46h7.28v2.7H1.18Z"/><path class="cls-1" d="M13.44,28.56a9.6,9.6,0,0,1,.69-3.72A8.19,8.19,0,0,1,16,22a8.34,8.34,0,0,1,2.9-1.79,10.34,10.34,0,0,1,3.66-.63,10.49,10.49,0,0,1,3.7.63A8.47,8.47,0,0,1,29.23,22a8.08,8.08,0,0,1,1.92,2.81,9.6,9.6,0,0,1,.69,3.72,9.47,9.47,0,0,1-.69,3.66,8.53,8.53,0,0,1-1.92,2.85,8.63,8.63,0,0,1-2.93,1.86,9.86,9.86,0,0,1-3.7.67,9.73,9.73,0,0,1-3.66-.67A8.5,8.5,0,0,1,16,35.07a8.66,8.66,0,0,1-1.91-2.85A9.47,9.47,0,0,1,13.44,28.56Zm3.31,0a7.05,7.05,0,0,0,.43,2.52,5.93,5.93,0,0,0,1.2,2,5.77,5.77,0,0,0,1.87,1.32,5.91,5.91,0,0,0,2.38.47A6,6,0,0,0,25,34.4a5.71,5.71,0,0,0,1.88-1.32,6.12,6.12,0,0,0,1.21-2,7.28,7.28,0,0,0,.42-2.52,7.08,7.08,0,0,0-.42-2.47,6.18,6.18,0,0,0-1.2-2,5.51,5.51,0,0,0-1.86-1.33,5.78,5.78,0,0,0-2.42-.49,5.7,5.7,0,0,0-2.41.49,5.57,5.57,0,0,0-1.85,1.33,6,6,0,0,0-1.19,2A6.86,6.86,0,0,0,16.75,28.56Z"/><path class="cls-1" d="M51.24,36.27a13.1,13.1,0,0,1-2.87,1,16.73,16.73,0,0,1-3.59.35,10.32,10.32,0,0,1-3.8-.67A8.71,8.71,0,0,1,38,35.07a8.53,8.53,0,0,1-1.92-2.85,10.08,10.08,0,0,1,0-7.38,8.31,8.31,0,0,1,2-2.81A8.61,8.61,0,0,1,41,20.24a10.46,10.46,0,0,1,3.68-.63,11.54,11.54,0,0,1,3.76.59,7.82,7.82,0,0,1,2.74,1.56L49.11,24a5.33,5.33,0,0,0-1.83-1.23,6.31,6.31,0,0,0-2.55-.51,5.89,5.89,0,0,0-2.45.49,5.4,5.4,0,0,0-1.88,1.33,6,6,0,0,0-1.19,2,6.86,6.86,0,0,0-.43,2.47,7.05,7.05,0,0,0,.43,2.52,5.93,5.93,0,0,0,1.2,2,5.73,5.73,0,0,0,1.91,1.32,6.64,6.64,0,0,0,2.56.47,8.72,8.72,0,0,0,3.41-.61V29.91H44.68V27.39h6.56Z"/><path class="cls-1" d="M56.39,20h3V37.16h-3Z"/><path class="cls-1" d="M64.66,20h4l8,12.82h0V20h3V37.16H75.88L67.75,23.94h0V37.16h-3Z"/><path class="cls-2" d="M49.39,6.86a2.73,2.73,0,0,0,0-2.49H47.29V6.86Z"/><path class="cls-3" d="M42.3,2.68a2.9,2.9,0,0,0-1.87,1.2,4.08,4.08,0,0,0-.28.49H42.3Z"/><path class="cls-2" d="M44.79,4.37V3.79h0l-.18-.17a3.21,3.21,0,0,0-2.08-1H42.3V4.37Z"/><path class="cls-2" d="M42.3,4.37H40.15a2.76,2.76,0,0,0,.05,2.49h2.1Z"/><rect class="cls-4" x="42.3" y="4.37" width="2.49" height="2.49"/><path class="cls-4" d="M45,3.62l-.19.17v.58h2.5V2.68h-.24A3.17,3.17,0,0,0,45,3.62Z"/><path class="cls-3" d="M49.43,4.37a3,3,0,0,0-.27-.49,2.94,2.94,0,0,0-1.87-1.2V4.37Z"/><rect class="cls-3" x="44.79" y="4.37" width="2.49" height="2.49"/><path class="cls-4" d="M40.2,6.86a4.31,4.31,0,0,0,1,1.28L42.3,9V6.86Z"/><polygon class="cls-3" points="44.79 6.86 42.3 6.86 42.3 9.02 42.71 9.35 44.79 9.35 44.79 6.86"/><polygon class="cls-2" points="42.71 9.35 44.79 11.05 44.79 11.04 44.79 11.05 44.79 9.35 42.71 9.35"/><polygon class="cls-2" points="44.79 6.86 44.79 9.35 46.88 9.35 47.28 9.02 47.28 6.86 44.79 6.86"/><path class="cls-4" d="M47.29,9l1.07-.88a4.27,4.27,0,0,0,1-1.28h-2.1Z"/><polygon class="cls-4" points="44.79 11.05 44.79 11.05 46.88 9.35 44.79 9.35 44.79 11.05"/><path class="cls-2" d="M4.8,4.29a1.77,1.77,0,0,0-.65-.49,1.91,1.91,0,0,0-.83-.2,2.22,2.22,0,0,0-.51.06,1.41,1.41,0,0,0-.45.2A1,1,0,0,0,2,4.2a.92.92,0,0,0-.13.51A1,1,0,0,0,2,5.17a1,1,0,0,0,.32.33,1.54,1.54,0,0,0,.48.24L3.43,6c.26.08.53.18.8.28A3,3,0,0,1,5,6.66a2,2,0,0,1,.57.66,2,2,0,0,1,.22,1,2.55,2.55,0,0,1-.24,1.14,2.29,2.29,0,0,1-.64.8,2.83,2.83,0,0,1-.93.48,3.86,3.86,0,0,1-1.13.16,4.29,4.29,0,0,1-1.54-.29A2.92,2.92,0,0,1,.07,9.74l1-1a2.11,2.11,0,0,0,.79.65,2.28,2.28,0,0,0,1,.24,2.22,2.22,0,0,0,.51-.06,1.75,1.75,0,0,0,.48-.21A1.24,1.24,0,0,0,4.2,9a1,1,0,0,0,.13-.55.9.9,0,0,0-.15-.53,1.27,1.27,0,0,0-.4-.36,2.15,2.15,0,0,0-.59-.27l-.72-.24a7.28,7.28,0,0,1-.73-.28,2.31,2.31,0,0,1-.66-.42,2,2,0,0,1-.47-.64,2.28,2.28,0,0,1-.18-1A2.1,2.1,0,0,1,.68,3.71,2.37,2.37,0,0,1,1.36,3a3,3,0,0,1,1-.44A4.3,4.3,0,0,1,3.38,2.4a3.7,3.7,0,0,1,1.25.22,2.9,2.9,0,0,1,1.1.65Z"/><path class="cls-2" d="M16.1,7.72A3.31,3.31,0,0,1,15.84,9a2.78,2.78,0,0,1-.68,1,2.94,2.94,0,0,1-1,.64,3.57,3.57,0,0,1-1.29.22,3.64,3.64,0,0,1-1.29-.22,3,3,0,0,1-1-.64,2.78,2.78,0,0,1-.68-1,3.3,3.3,0,0,1-.25-1.32V2.61H11V7.66a2.74,2.74,0,0,0,.09.7,1.63,1.63,0,0,0,.3.62,1.47,1.47,0,0,0,.56.45,2,2,0,0,0,.86.17,2,2,0,0,0,.86-.17A1.4,1.4,0,0,0,14.26,9a1.65,1.65,0,0,0,.31-.62,2.74,2.74,0,0,0,.09-.7V2.61H16.1Z"/><path class="cls-2" d="M20.24,2.61h1.44V6.1h0l3.38-3.49H27L23.25,6.34l4,4.35h-2L21.71,6.63h0v4.06H20.24Z"/><path class="cls-2" d="M37,7.72A3.49,3.49,0,0,1,36.72,9,3,3,0,0,1,35,10.67a3.86,3.86,0,0,1-2.57,0,3.08,3.08,0,0,1-1-.64,2.78,2.78,0,0,1-.68-1,3.3,3.3,0,0,1-.25-1.32V2.61H31.9V7.66a2.74,2.74,0,0,0,.09.7,1.63,1.63,0,0,0,.3.62,1.47,1.47,0,0,0,.56.45,2.29,2.29,0,0,0,1.73,0A1.55,1.55,0,0,0,35.14,9a1.63,1.63,0,0,0,.3-.62,2.74,2.74,0,0,0,.09-.7V2.61H37Z"/><path class="cls-2" d="M52.51,2.61h5.22V3.86H54V6.07h3.56V7.28H54v3.41H52.51Z"/><path class="cls-2" d="M68.32,7.72A3.31,3.31,0,0,1,68.06,9a2.78,2.78,0,0,1-.68,1,2.94,2.94,0,0,1-1,.64,3.57,3.57,0,0,1-1.29.22,3.64,3.64,0,0,1-1.29-.22,3,3,0,0,1-1-.64,2.78,2.78,0,0,1-.68-1,3.3,3.3,0,0,1-.25-1.32V2.61h1.44V7.66a2.74,2.74,0,0,0,.09.7,1.63,1.63,0,0,0,.3.62,1.47,1.47,0,0,0,.56.45,2,2,0,0,0,.86.17,2,2,0,0,0,.87-.17A1.44,1.44,0,0,0,66.48,9a1.51,1.51,0,0,0,.31-.62,2.74,2.74,0,0,0,.09-.7V2.61h1.44Z"/><path class="cls-2" d="M72.63,2.61h1.91l3.75,6h0v-6h1.44v8.08H77.92L74.09,4.44h0v6.25H72.63Z"/></svg>